<svg xmlns="http://www.w3.org/2000/svg" width="26" height="26" viewBox="0 0 26 26">
  <path id="Icon_feather-message-circle" data-name="Icon feather-message-circle" d="M3,14.333A11.173,11.173,0,0,0,4.2,19.4a11.333,11.333,0,0,0,10.133,6.267,11.173,11.173,0,0,0,5.067-1.2L27,27l-2.533-7.6a11.173,11.173,0,0,0,1.2-5.067A11.333,11.333,0,0,0,19.4,4.2,11.173,11.173,0,0,0,14.333,3h-.667A11.307,11.307,0,0,0,3,13.667Z" transform="translate(-2 -2)" fill="none" stroke="#000" stroke-linecap="round" stroke-linejoin="round" stroke-width="2"/>
</svg>
