<svg xmlns="http://www.w3.org/2000/svg" width="24" height="29" viewBox="0 0 24 29">
  <g id="customer-service-headphones-svgrepo-com" transform="translate(-34.926)">
    <g id="Group_2" data-name="Group 2" transform="translate(34.926)">
      <path id="Path_25" data-name="Path 25" d="M54.781,15.555h2.264a1.925,1.925,0,0,0,1.88-1.962V9.727a1.95,1.95,0,0,0-1.447-1.909,11.753,11.753,0,0,0-3.791-5.443,10.808,10.808,0,0,0-13.522,0,11.753,11.753,0,0,0-3.792,5.443,1.95,1.95,0,0,0-1.447,1.909v3.866a1.925,1.925,0,0,0,1.88,1.962h2.264a9.107,9.107,0,0,0,1.981,2.793,6.071,6.071,0,0,0-5.9,6.188V29H58.7V24.536a6.071,6.071,0,0,0-5.9-6.188A9.111,9.111,0,0,0,54.781,15.555Zm2.494-5.828v3.866a.235.235,0,0,1-.229.239H55.624V11.658c0-.075,0-.15,0-.226v0c0-.009,0-.017,0-.026s0-.018,0-.027v-.041c0-.043,0-.087,0-.129h0c0-.021,0-.042,0-.063v-.008l0-.048c0-.035,0-.07-.007-.107h0c0-.031,0-.062-.007-.093l0-.027c0-.032-.005-.063-.008-.1s-.008-.075-.012-.113l0-.021-.007-.066c-.006-.048-.012-.1-.018-.144l0-.017c0-.028-.007-.057-.011-.085s-.012-.082-.019-.124l-.013-.082q-.052-.313-.124-.619l0-.009h1.674A.235.235,0,0,1,57.275,9.727ZM38.478,9.5q-.075.32-.128.648l-.007.044V10.2q-.032.2-.055.411l0,.029v.007c0,.037-.008.075-.012.112h0c0,.034-.006.067-.009.1l0,.026c0,.034-.006.067-.008.1s0,.066-.006.1l0,.049h0c0,.024,0,.048,0,.073,0,.045,0,.089,0,.134v.042c0,.091,0,.182,0,.273v2.172H36.806a.235.235,0,0,1-.229-.239V9.727a.235.235,0,0,1,.229-.239h1.674Zm-.315-1.734a9.991,9.991,0,0,1,3-4.019,9.212,9.212,0,0,1,11.523,0,9.991,9.991,0,0,1,3,4.019h-.908a8.545,8.545,0,0,0-15.711,0Zm14.731-.011a5.722,5.722,0,0,1-7.52-.727l-.544-.568-.581.526a4.344,4.344,0,0,1-3.482,1.108,6.9,6.9,0,0,1,12.127-.338Zm4.159,16.782v2.741H36.8V24.536a4.38,4.38,0,0,1,4.279-4.465h1.913v.217a3.938,3.938,0,1,0,7.869,0v-.217h1.913A4.38,4.38,0,0,1,57.053,24.536ZM44.646,20.422l.006,0c.08.023.161.044.242.064l.072.018.195.044.063.014q.125.026.252.048l.048.008.21.033.075.01.213.026.046.005.177.016h.016l.063,0,.066,0,.06,0,.034,0,.107,0,.074,0h.041l.22,0,.22,0h.041l.074,0,.107,0,.034,0,.06,0,.066,0,.063,0h.016l.177-.016.046-.005.213-.026.075-.01.21-.033.048-.008q.126-.022.252-.048l.063-.014.195-.044.072-.018c.081-.02.162-.041.242-.064l.006,0a2.28,2.28,0,0,1-4.56,0Zm4.432-4.828a1.824,1.824,0,0,0-1.629-1.043H46.4a1.91,1.91,0,0,0,0,3.817h1.047a1.825,1.825,0,0,0,1.634-1.051l2.359-.016a6.842,6.842,0,0,1-4.516,1.713,7.213,7.213,0,0,1-7.047-7.353c0-.062,0-.123,0-.186l0-.072c0-.037,0-.073,0-.109,0-.016,0-.031,0-.047l0-.03c0-.035,0-.07.006-.1h0c0-.02,0-.04,0-.059l0-.036c0-.029,0-.058.007-.087s0-.046.007-.069l0-.02c0-.02,0-.039.007-.059s0-.019,0-.029c0-.027.007-.054.01-.081l0-.012,0-.013c0-.024.006-.048.01-.073s.009-.059.013-.088.009-.059.014-.088.011-.063.016-.094l.014-.078c.006-.032.012-.064.019-.1l.016-.074c.007-.034.015-.067.022-.1l.017-.074.023-.1.014-.055a5.907,5.907,0,0,0,1.186.121,5.958,5.958,0,0,0,3.431-1.094,7.31,7.31,0,0,0,8.865.571l.021.066.006.019.009.03c.01.034.02.068.03.1l.018.064q.014.052.028.1l.017.067c.008.033.016.066.025.1l.017.074c.007.032.015.065.022.1l.016.075c.006.032.013.063.019.1l.015.083c.005.03.011.06.016.093v.008l.012.074c0,.03.009.06.014.09s.009.064.013.1v0c0,.027.007.053.01.08s.007.059.01.089l0,.025c0,.022,0,.043.007.065s0,.018,0,.027,0,.041.005.061l0,.034c0,.019,0,.039,0,.057,0,.037,0,.075.007.112l0,.026c0,.015,0,.029,0,.045,0,.048,0,.1.005.144v.038q0,.093,0,.186h0a7.544,7.544,0,0,1-1.08,3.908Zm-1.451.866a.182.182,0,0,1-.178.186H46.4a.186.186,0,0,1,0-.372h1.047A.182.182,0,0,1,47.627,16.459Z" transform="translate(-34.926 0)"/>
    </g>
  </g>
</svg>
