<svg xmlns="http://www.w3.org/2000/svg" width="25" height="25" viewBox="0 0 25 25">
  <g id="dumbell-gym-healthy-life-svgrepo-com" transform="translate(-6.337 -56.055)">
    <g id="Group_15" data-name="Group 15" transform="translate(6.837 56.555)">
      <path id="Path_48" data-name="Path 48" d="M190.133,250.5a9.729,9.729,0,0,0-9.718-9.718v1.091a8.637,8.637,0,0,1,8.627,8.627Z" transform="translate(-174.357 -232.293)" fill="#fff" stroke="#fff" stroke-width="1"/>
      <path id="Path_49" data-name="Path 49" d="M7.772,72.8H11.7V67.078h1.97V69.45a6.237,6.237,0,0,0,1.4,4.019,6.428,6.428,0,0,1,1.47,4.137v2.949h.482V77.606A7.11,7.11,0,0,0,15.4,73.029a5.555,5.555,0,0,1-1.244-3.579V66.363a1.367,1.367,0,0,1,1.192-1.489h2.929a.253.253,0,0,1,.22.275,1.261,1.261,0,0,1-1.1,1.374H15.217v.6h2.178a1.434,1.434,0,0,0,1.1-.564,1.141,1.141,0,0,0,.852.406,1.223,1.223,0,0,0,1.037-.665,1.222,1.222,0,0,0,1.037.665A1.31,1.31,0,0,0,22.6,66h.45v5.844a2.919,2.919,0,0,1-.4,1.5,5.131,5.131,0,0,0-.724,2.641v4.573h.482V75.982a4.431,4.431,0,0,1,.628-2.28,3.619,3.619,0,0,0,.5-1.863V66h2.44v.48H24.187v.6h1.786V72.8H29.9V69.171l.935-1.436V61.619L29.9,60.183V56.555h-3.93v6.8H22.7V61.773a1.806,1.806,0,0,0-.374-1.128,1.155,1.155,0,0,0-.9-.468,1.127,1.127,0,0,0-.8.355,1.766,1.766,0,0,0-.368-.967,1.157,1.157,0,0,0-.9-.468,1.222,1.222,0,0,0-1.036.665,1.58,1.58,0,0,0-.134-.2,1.157,1.157,0,0,0-.9-.468,1.428,1.428,0,0,0-1.271,1.434,1.121,1.121,0,0,0-.8-.354,1.466,1.466,0,0,0-1.278,1.6v1.885h.482V61.773a.914.914,0,0,1,.8-.995.72.72,0,0,1,.563.292,1.125,1.125,0,0,1,.233.7h.482v-1.08a.913.913,0,0,1,.8-.995.721.721,0,0,1,.562.292,1.125,1.125,0,0,1,.233.7v.781h.482v-.781a.913.913,0,0,1,.8-.995.721.721,0,0,1,.563.292,1.122,1.122,0,0,1,.233.7v1.08h.482a.913.913,0,0,1,.8-.995.72.72,0,0,1,.563.292,1.125,1.125,0,0,1,.233.7v3.6a.913.913,0,0,1-.8.994.913.913,0,0,1-.8-.994V62.988h-.482v2.383a.913.913,0,0,1-.8.994.721.721,0,0,1-.561-.289,2.362,2.362,0,0,0,.186-.928.906.906,0,0,0-.42-.8V62.32h-.482v1.952H16.481v-1.29H16v1.29h-.655a1.673,1.673,0,0,0-1.482,1.122H11.7V63.959h1.59v-.6H11.7v-6.8H7.772v3.628l-.935,1.436v6.116l.935,1.436ZM30.355,61.832v5.689l-.453.7V61.136Zm-3.9-4.676H27.7V70.193h.482V57.157h1.242V72.2H28.179V71.055H27.7V72.2H26.455V57.157Zm-.482,6.8v1.435H22.7c0-.008,0-.015,0-.023V63.959ZM13.7,66a2.6,2.6,0,0,0-.026.367v.113H11.7V66ZM8.253,57.157H9.5V58.3h.482V57.157h1.242V72.2H9.977V59.16H9.5V72.2H8.253V57.157ZM7.319,67.521V61.832l.453-.7v7.08Z" transform="translate(-6.837 -56.555)" fill="#fff" stroke="#fff" stroke-width="1"/>
    </g>
  </g>
</svg>
