<svg xmlns="http://www.w3.org/2000/svg" width="27.001" height="27.003" viewBox="0 0 27.001 27.003">
  <path id="Icon_feather-phone" data-name="Icon feather-phone" d="M27.167,20.968v3.613a2.412,2.412,0,0,1-2.631,2.409,23.911,23.911,0,0,1-10.414-3.7,23.508,23.508,0,0,1-7.24-7.226,23.8,23.8,0,0,1-3.7-10.441A2.411,2.411,0,0,1,5.579,3H9.2a2.412,2.412,0,0,1,2.413,2.071,15.438,15.438,0,0,0,.845,3.384A2.4,2.4,0,0,1,11.914,11l-1.533,1.529a19.288,19.288,0,0,0,7.24,7.226l1.533-1.529a2.417,2.417,0,0,1,2.546-.542,15.519,15.519,0,0,0,3.391.843,2.41,2.41,0,0,1,2.076,2.445Z" transform="translate(-1.667 -1.5)" fill="none" stroke="#fdfdfb" stroke-linecap="round" stroke-linejoin="round" stroke-width="3"/>
</svg>
