<svg id="Icon_ionic-ios-help-circle-outline" data-name="Icon ionic-ios-help-circle-outline" xmlns="http://www.w3.org/2000/svg" width="24" height="24" viewBox="0 0 24 24">
  <path id="Path_41" data-name="Path 41" d="M14.25,3.865a10.381,10.381,0,1,1-7.344,3.04,10.316,10.316,0,0,1,7.344-3.04m0-1.615a12,12,0,1,0,12,12,12,12,0,0,0-12-12Z" transform="translate(-2.25 -2.25)" fill="#fdfdfb"/>
  <path id="Path_42" data-name="Path 42" d="M14.305,7.5c3.075,0,5.19,1.706,5.19,4.157a4.011,4.011,0,0,1-2.3,3.641c-1.427.828-1.911,1.435-1.911,2.485v.648H12.436l-.025-.705a3.413,3.413,0,0,1,1.935-3.608c1.386-.828,1.968-1.353,1.968-2.37a1.99,1.99,0,0,0-2.206-1.763A2.074,2.074,0,0,0,11.911,12H9C9.057,9.361,11.009,7.5,14.305,7.5ZM12.149,21.554A1.76,1.76,0,1,1,13.9,23.243,1.717,1.717,0,0,1,12.149,21.554Z" transform="translate(-2.248 -3.372)" fill="#fdfdfb"/>
</svg>
