<svg xmlns="http://www.w3.org/2000/svg" width="20" height="24" viewBox="0 0 20 24">
  <g id="Icon_ionic-ios-notifications-outline" data-name="Icon ionic-ios-notifications-outline" transform="translate(-4.517 -2.62)">
    <path id="Path_19" data-name="Path 19" d="M14.626,18.891a.775.775,0,0,0-.76.611,1.5,1.5,0,0,1-.3.652,1.131,1.131,0,0,1-.964.353,1.15,1.15,0,0,1-.964-.353,1.5,1.5,0,0,1-.3-.652.775.775,0,0,0-.76-.611h0a.781.781,0,0,0-.76.952A2.675,2.675,0,0,0,12.6,22.063a2.669,2.669,0,0,0,2.783-2.221.784.784,0,0,0-.76-.952Z" transform="translate(1.895 4.557)"/>
    <path id="Path_20" data-name="Path 20" d="M24.266,20.4c-.964-1.218-2.859-1.932-2.859-7.388,0-5.6-2.578-7.85-4.98-8.39-.225-.054-.388-.126-.388-.354V4.1a1.5,1.5,0,0,0-1.5-1.476H14.5A1.5,1.5,0,0,0,13,4.1v.174c0,.222-.163.3-.388.354-2.409.546-4.98,2.791-4.98,8.39,0,5.455-1.9,6.163-2.859,7.388a1.189,1.189,0,0,0,.995,1.908H23.29A1.189,1.189,0,0,0,24.266,20.4Zm-2.44.348H7.235a.262.262,0,0,1-.206-.438,7.239,7.239,0,0,0,1.314-2,13.1,13.1,0,0,0,.895-5.293,8.911,8.911,0,0,1,1.308-5.209,4.022,4.022,0,0,1,2.421-1.656,2.216,2.216,0,0,0,1.164-.63.509.509,0,0,1,.745-.012,2.292,2.292,0,0,0,1.176.642,4.022,4.022,0,0,1,2.421,1.656,8.911,8.911,0,0,1,1.308,5.209,13.1,13.1,0,0,0,.895,5.293,7.325,7.325,0,0,0,1.345,2.034A.247.247,0,0,1,21.826,20.75Z" transform="translate(0)"/>
  </g>
</svg>
