<svg xmlns="http://www.w3.org/2000/svg" width="327" height="341" viewBox="0 0 327 341">
  <g id="Schedule" transform="translate(-24 -238)">
    <g id="Days" transform="translate(6.875)">
      <path id="Rectangle_53" data-name="Rectangle 53" d="M0,0H83A10,10,0,0,1,93,10V56a0,0,0,0,1,0,0H0a0,0,0,0,1,0,0V0A0,0,0,0,1,0,0Z" transform="translate(251.125 238)" fill="#e1e002"/>
      <text id="السبت" transform="translate(321.625 273)" font-size="18" font-family="SegoeUI-Bold, Segoe UI" font-weight="700"><tspan x="-48.094" y="0">السبت</tspan></text>
      <rect id="Rectangle_54" data-name="Rectangle 54" width="93" height="56" transform="translate(251.125 295)" fill="#e1e002"/>
      <text id="الأحد" transform="translate(314.616 329)" font-size="18" font-family="SegoeUI-Bold, Segoe UI" font-weight="700"><tspan x="-34.567" y="0">الأحد</tspan></text>
      <rect id="Rectangle_55" data-name="Rectangle 55" width="93" height="56" transform="translate(251.125 352)" fill="#e1e002"/>
      <text id="الإثنين" transform="translate(319.614 385)" font-size="18" font-family="SegoeUI-Bold, Segoe UI" font-weight="700"><tspan x="-45.088" y="0">الإثنين</tspan></text>
      <rect id="Rectangle_56" data-name="Rectangle 56" width="93" height="56" transform="translate(251.125 409)" fill="#e1e002"/>
      <text id="الثلاثاء" transform="translate(319.614 441)" font-size="18" font-family="SegoeUI-Bold, Segoe UI" font-weight="700"><tspan x="-45.088" y="0">الثلاثاء</tspan></text>
      <rect id="Rectangle_57" data-name="Rectangle 57" width="93" height="56" transform="translate(251.125 466)" fill="#e1e002"/>
      <text id="الأربعاء" transform="translate(322.613 497)" font-size="18" font-family="SegoeUI-Bold, Segoe UI" font-weight="700"><tspan x="-51.1" y="0">الأربعاء</tspan></text>
      <path id="Rectangle_58" data-name="Rectangle 58" d="M0,0H93a0,0,0,0,1,0,0V46A10,10,0,0,1,83,56H0a0,0,0,0,1,0,0V0A0,0,0,0,1,0,0Z" transform="translate(251.125 523)" fill="#e1e002"/>
      <text id="الخميس" transform="translate(326.61 554)" font-size="18" font-family="SegoeUI-Bold, Segoe UI" font-weight="700"><tspan x="-58.614" y="0">الخميس</tspan></text>
    </g>
    <rect id="Rectangle_59" data-name="Rectangle 59" width="116" height="28" transform="translate(141 238)" fill="#373737"/>
    <rect id="Rectangle_71" data-name="Rectangle 71" width="77" height="28" transform="translate(180 295)" fill="#373737"/>
    <rect id="Rectangle_80" data-name="Rectangle 80" width="77" height="28" transform="translate(180 323)" fill="#444"/>
    <rect id="Rectangle_83" data-name="Rectangle 83" width="77" height="28" transform="translate(180 437)" fill="#444"/>
    <rect id="Rectangle_84" data-name="Rectangle 84" width="77" height="28" transform="translate(180 551)" fill="#444"/>
    <rect id="Rectangle_81" data-name="Rectangle 81" width="77" height="28" transform="translate(102 323)" fill="#444"/>
    <rect id="Rectangle_85" data-name="Rectangle 85" width="77" height="28" transform="translate(102 437)" fill="#444"/>
    <rect id="Rectangle_86" data-name="Rectangle 86" width="77" height="28" transform="translate(102 551)" fill="#444"/>
    <rect id="Rectangle_82" data-name="Rectangle 82" width="77" height="28" transform="translate(24 323)" fill="#444"/>
    <rect id="Rectangle_87" data-name="Rectangle 87" width="77" height="28" transform="translate(24 437)" fill="#444"/>
    <rect id="Rectangle_88" data-name="Rectangle 88" width="77" height="28" transform="translate(24 551)" fill="#444"/>
    <rect id="Rectangle_74" data-name="Rectangle 74" width="77" height="28" transform="translate(180 409)" fill="#373737"/>
    <rect id="Rectangle_75" data-name="Rectangle 75" width="77" height="28" transform="translate(180 523)" fill="#373737"/>
    <rect id="Rectangle_72" data-name="Rectangle 72" width="77" height="28" transform="translate(24 295)" fill="#373737"/>
    <rect id="Rectangle_78" data-name="Rectangle 78" width="77" height="28" transform="translate(24 409)" fill="#373737"/>
    <rect id="Rectangle_79" data-name="Rectangle 79" width="77" height="28" transform="translate(24 523)" fill="#373737"/>
    <rect id="Rectangle_61" data-name="Rectangle 61" width="116" height="28" transform="translate(141 352)" fill="#373737"/>
    <rect id="Rectangle_63" data-name="Rectangle 63" width="116" height="28" transform="translate(141 466)" fill="#373737"/>
    <rect id="Rectangle_65" data-name="Rectangle 65" width="116" height="28" transform="translate(141 494)" fill="#444"/>
    <rect id="Rectangle_66" data-name="Rectangle 66" width="116" height="28" transform="translate(24 494)" fill="#444"/>
    <rect id="Rectangle_67" data-name="Rectangle 67" width="116" height="28" transform="translate(24 380)" fill="#444"/>
    <rect id="Rectangle_68" data-name="Rectangle 68" width="116" height="28" transform="translate(141 380)" fill="#444"/>
    <rect id="Rectangle_69" data-name="Rectangle 69" width="116" height="28" transform="translate(141 266)" fill="#444"/>
    <rect id="Rectangle_70" data-name="Rectangle 70" width="116" height="28" transform="translate(24 266)" fill="#444"/>
    <rect id="Rectangle_60" data-name="Rectangle 60" width="116" height="28" transform="translate(24 238)" fill="#373737"/>
    <rect id="Rectangle_73" data-name="Rectangle 73" width="77" height="28" transform="translate(102 295)" fill="#373737"/>
    <rect id="Rectangle_76" data-name="Rectangle 76" width="77" height="28" transform="translate(102 409)" fill="#373737"/>
    <rect id="Rectangle_77" data-name="Rectangle 77" width="77" height="28" transform="translate(102 523)" fill="#373737"/>
    <rect id="Rectangle_62" data-name="Rectangle 62" width="116" height="28" transform="translate(24 352)" fill="#373737"/>
    <rect id="Rectangle_64" data-name="Rectangle 64" width="116" height="28" transform="translate(24 466)" fill="#373737"/>
    <text id="الرجال" transform="translate(214 257)" fill="#fff" font-size="12" font-family="SegoeUI-Bold, Segoe UI" font-weight="700"><tspan x="-30.059" y="0">الرجال</tspan></text>
    <text id="الرجال-2" data-name="الرجال" transform="translate(228 312)" fill="#fff" font-size="7" font-family="SegoeUI-Bold, Segoe UI" font-weight="700"><tspan x="-17.534" y="0">الرجال</tspan></text>
    <text id="الرجال-3" data-name="الرجال" transform="translate(228 426)" fill="#fff" font-size="7" font-family="SegoeUI-Bold, Segoe UI" font-weight="700"><tspan x="-17.534" y="0">الرجال</tspan></text>
    <text id="الرجال-4" data-name="الرجال" transform="translate(228 540)" fill="#fff" font-size="7" font-family="SegoeUI-Bold, Segoe UI" font-weight="700"><tspan x="-17.534" y="0">الرجال</tspan></text>
    <text id="الرجال-5" data-name="الرجال" transform="translate(72 312)" fill="#fff" font-size="7" font-family="SegoeUI-Bold, Segoe UI" font-weight="700"><tspan x="-17.534" y="0">الرجال</tspan></text>
    <text id="الرجال-6" data-name="الرجال" transform="translate(72 426)" fill="#fff" font-size="7" font-family="SegoeUI-Bold, Segoe UI" font-weight="700"><tspan x="-17.534" y="0">الرجال</tspan></text>
    <text id="الرجال-7" data-name="الرجال" transform="translate(72 540)" fill="#fff" font-size="7" font-family="SegoeUI-Bold, Segoe UI" font-weight="700"><tspan x="-17.534" y="0">الرجال</tspan></text>
    <text id="الرجال-8" data-name="الرجال" transform="translate(214 371)" fill="#fff" font-size="12" font-family="SegoeUI-Bold, Segoe UI" font-weight="700"><tspan x="-30.059" y="0">الرجال</tspan></text>
    <text id="الرجال-9" data-name="الرجال" transform="translate(214 485)" fill="#fff" font-size="12" font-family="SegoeUI-Bold, Segoe UI" font-weight="700"><tspan x="-30.059" y="0">الرجال</tspan></text>
    <text id="النساء" transform="translate(97 257)" fill="#fff" font-size="12" font-family="SegoeUI-Bold, Segoe UI" font-weight="700"><tspan x="-29.057" y="0">النساء</tspan></text>
    <text id="النساء-2" data-name="النساء" transform="translate(149 312)" fill="#fff" font-size="7" font-family="SegoeUI-Bold, Segoe UI" font-weight="700"><tspan x="-16.95" y="0">النساء</tspan></text>
    <text id="النساء-3" data-name="النساء" transform="translate(149 426)" fill="#fff" font-size="7" font-family="SegoeUI-Bold, Segoe UI" font-weight="700"><tspan x="-16.95" y="0">النساء</tspan></text>
    <text id="النساء-4" data-name="النساء" transform="translate(149 540)" fill="#fff" font-size="7" font-family="SegoeUI-Bold, Segoe UI" font-weight="700"><tspan x="-16.95" y="0">النساء</tspan></text>
    <text id="النساء-5" data-name="النساء" transform="translate(97 371)" fill="#fff" font-size="12" font-family="SegoeUI-Bold, Segoe UI" font-weight="700"><tspan x="-29.057" y="0">النساء</tspan></text>
    <text id="النساء-6" data-name="النساء" transform="translate(97 485)" fill="#fff" font-size="12" font-family="SegoeUI-Bold, Segoe UI" font-weight="700"><tspan x="-29.057" y="0">النساء</tspan></text>
    <text id="_2:00_11:00" data-name="2:00 – 11:00" transform="translate(227 284)" fill="#fff" font-size="10" font-family="SegoeUI-Bold, Segoe UI" font-weight="700"><tspan x="-56.201" y="0">2:00 – 11:00</tspan></text>
    <text id="_2:00_11:00-2" data-name="2:00 – 11:00" transform="translate(227 398)" fill="#fff" font-size="10" font-family="SegoeUI-Bold, Segoe UI" font-weight="700"><tspan x="-56.201" y="0">2:00 – 11:00</tspan></text>
    <text id="_2:00_11:00-3" data-name="2:00 – 11:00" transform="translate(227 512)" fill="#fff" font-size="10" font-family="SegoeUI-Bold, Segoe UI" font-weight="700"><tspan x="-56.201" y="0">2:00 – 11:00</tspan></text>
    <text id="_8:00_2:00" data-name=" 8:00 – 2:00" transform="translate(109 284)" fill="#fff" font-size="10" font-family="SegoeUI-Bold, Segoe UI" font-weight="700"><tspan x="-53.208" y="0" xml:space="preserve"> 8:00 – 2:00</tspan></text>
    <text id="_8:00_2:00-2" data-name=" 8:00 – 2:00" transform="translate(109 398)" fill="#fff" font-size="10" font-family="SegoeUI-Bold, Segoe UI" font-weight="700"><tspan x="-53.208" y="0" xml:space="preserve"> 8:00 – 2:00</tspan></text>
    <text id="_8:00_2:00-3" data-name=" 8:00 – 2:00" transform="translate(109 512)" fill="#fff" font-size="10" font-family="SegoeUI-Bold, Segoe UI" font-weight="700"><tspan x="-53.208" y="0" xml:space="preserve"> 8:00 – 2:00</tspan></text>
    <text id="_4:00_11:00_" data-name="4:00 – 11:00 " transform="translate(242 341)" fill="#fff" font-size="8" font-family="SegoeUI-Bold, Segoe UI" font-weight="700"><tspan x="-47.168" y="0">4:00 – 11:00 </tspan></text>
    <text id="_4:00_11:00_2" data-name="4:00 – 11:00 " transform="translate(242 455)" fill="#fff" font-size="8" font-family="SegoeUI-Bold, Segoe UI" font-weight="700"><tspan x="-47.168" y="0">4:00 – 11:00 </tspan></text>
    <text id="_4:00_11:00_3" data-name="4:00 – 11:00 " transform="translate(242 569)" fill="#fff" font-size="8" font-family="SegoeUI-Bold, Segoe UI" font-weight="700"><tspan x="-47.168" y="0">4:00 – 11:00 </tspan></text>
    <text id="_12:00_3:00_" data-name="12:00 – 3:00 " transform="translate(164 341)" fill="#fff" font-size="8" font-family="SegoeUI-Bold, Segoe UI" font-weight="700"><tspan x="-47.168" y="0">12:00 – 3:00 </tspan></text>
    <text id="_12:00_3:00_2" data-name="12:00 – 3:00 " transform="translate(164 455)" fill="#fff" font-size="8" font-family="SegoeUI-Bold, Segoe UI" font-weight="700"><tspan x="-47.168" y="0">12:00 – 3:00 </tspan></text>
    <text id="_12:00_3:00_3" data-name="12:00 – 3:00 " transform="translate(164 569)" fill="#fff" font-size="8" font-family="SegoeUI-Bold, Segoe UI" font-weight="700"><tspan x="-47.168" y="0">12:00 – 3:00 </tspan></text>
    <text id="_8:00_11:45" data-name="8:00 – 11:45" transform="translate(85 341)" fill="#fff" font-size="8" font-family="SegoeUI-Bold, Segoe UI" font-weight="700"><tspan x="-44.961" y="0">8:00 – 11:45</tspan></text>
    <text id="_8:00_11:45-2" data-name="8:00 – 11:45" transform="translate(85 455)" fill="#fff" font-size="8" font-family="SegoeUI-Bold, Segoe UI" font-weight="700"><tspan x="-44.961" y="0">8:00 – 11:45</tspan></text>
    <text id="_8:00_11:45-3" data-name="8:00 – 11:45" transform="translate(85 569)" fill="#fff" font-size="8" font-family="SegoeUI-Bold, Segoe UI" font-weight="700"><tspan x="-44.961" y="0">8:00 – 11:45</tspan></text>
  </g>
</svg>
